<svg width="30" height="30" viewBox="0 0 30 30" fill="none" xmlns="http://www.w3.org/2000/svg">
<path d="M3.80225 27.8452L0.0481446 13.727C-0.190617 12.8291 0.488909 11.9496 1.41802 11.9541L15.9788 12.0237C16.6056 12.0267 17.1552 12.443 17.3279 13.0455L21.4217 27.3259C21.6826 28.236 20.9906 29.1396 20.0439 29.1249L5.14344 28.8931C4.51226 28.8832 3.96447 28.4553 3.80225 27.8452Z" fill="#48CAE4"/>
<path d="M7.9755 22.4201L4.22139 8.30192C3.98263 7.404 4.66216 6.52454 5.59127 6.52898L20.1521 6.59863C20.7788 6.60163 21.3285 7.01789 21.5012 7.62041L25.595 21.9008C25.8559 22.8109 25.1638 23.7145 24.2171 23.6998L9.31668 23.468C8.68551 23.4581 8.13771 23.0302 7.9755 22.4201Z" fill="#0096C7"/>
<path d="M12.325 16.7659L8.5709 2.64771C8.33214 1.7498 9.01166 0.870328 9.94077 0.874773L24.5016 0.944419C25.1284 0.947418 25.678 1.36368 25.8507 1.96621L29.9445 16.2466C30.2054 17.1567 29.5133 18.0603 28.5667 18.0456L13.6662 17.8138C13.035 17.8039 12.4872 17.3759 12.325 16.7659Z" fill="#0077B6"/>
<path d="M12.2846 16.7672L9.60461 6.58105L20.1087 6.60383C20.7382 6.6052 21.2906 7.02356 21.4625 7.62915L24.3946 17.9582L13.6304 17.8187C12.9965 17.8104 12.4459 17.3803 12.2846 16.7672Z" fill="#023E8A" fill-opacity="0.6"/>
</svg>
